#!OML:ASF H:\Dans Jumps\Project 1\Capture day 1\Session 1\subject.ASF
:FULLY-SPECIFIED
:DEGREES
554
root 0.659076 17.6565 10.6356 4.19324 -1.1802 -1.31331
lowerback -2.58858 0.141642 -0.53366
upperback 3.62697 0.158811 1.23417
thorax 5.19651 0.0311928 1.58839
lowerneck -10.2067 0.505868 -0.826146
upperneck 34.4816 0.865565 0.228381
head 13.2585 0.301683 0.35695
rclavicle -1.19271e-015 -7.95139e-015
rhumerus -29.2759 -25.2482 -77.1221
rradius 20.1302
rwrist 44.2752
rhand -17.3515 -26.7722
rfingers 7.12502
rthumb 8.89616 -56.5647
lclavicle -1.19271e-015 -7.95139e-015
lhumerus -23.5124 6.6269 81.3551
lradius 13.3672
lwrist -2.96045
lhand -23.8568 -7.0931
lfingers 7.12502
lthumb 2.61564 22.8706
rfemur -13.6376 -0.175065 19.2129
rtibia 22.7935
rfoot -12.9701 -0.196936
rtoes 12.2588
lfemur -11.1088 6.80027 -18.3323
ltibia 19.4133
lfoot -9.78388 4.38622
ltoes -8.76236
555
root 0.650848 17.657 10.651 4.1727 -1.1184 -1.39629
lowerback -2.6516 0.119398 -0.416273
upperback 3.6197 0.122249 1.25004
thorax 5.22616 0.017155 1.53667
lowerneck -10.2383 0.512647 -0.890378
upperneck 34.4952 0.886457 0.245356
head 13.2708 0.304607 0.378124
rclavicle -1.61513e-015 1.59028e-015
rhumerus -29.2504 -25.0175 -77.2265
rradius 20.1981
rwrist 43.9952
rhand -17.3205 -26.7546
rfingers 7.12502
rthumb 8.92607 -56.5458
lclavicle -1.61513e-015 1.59028e-015
lhumerus -23.5127 7.35592 81.0404
lradius 13.1289
lwrist -3.85707
lhand -23.8547 -7.09278
lfingers 7.12502
lthumb 2.61772 22.8709
rfemur -13.4539 -0.223924 19.3231
rtibia 22.6136
rfoot -12.9635 -0.147429
rtoes 12.4512
lfemur -11.0603 6.71748 -18.2074
ltibia 19.4687
lfoot -9.83194 4.47103
ltoes -8.77102
556
root 0.642577 17.6579 10.6663 4.16185 -1.05476 -1.49067
lowerback -2.73001 0.10212 -0.288736
upperback 3.6105 0.0913531 1.27076
thorax 5.26234 0.00622598 1.48471
lowerneck -10.2712 0.513688 -0.941131
upperneck 34.4967 0.899305 0.251683
head 13.2783 0.304501 0.391571
rclavicle -7.95139e-016 -9.93923e-016
rhumerus -29.217 -24.7325 -77.3385
rradius 20.2906
rwrist 43.6963
rhand -17.2954 -26.7433
rfingers 7.12502
rthumb 8.95031 -56.5335
lclavicle -7.95139e-016 -9.93923e-016
lhumerus -23.5076 8.10242 80.7362
lradius 12.9051
lwrist -4.72958
lhand -23.8682 -7.12489
lfingers 7.12502
lthumb 2.60463 22.839
rfemur -13.2742 -0.289854 19.4487
rtibia 22.4227
rfoot -12.9571 -0.0941079
rtoes 12.6426
lfemur -11.0222 6.64135 -18.0709
ltibia 19.5233
lfoot -9.88297 4.54791
ltoes -8.76154
557
root 0.634238 17.6591 10.6817 4.1583 -0.996488 -1.58881
lowerback -2.81615 0.0911522 -0.160235
upperback 3.59671 0.0684969 1.29389
thorax 5.29785 -0.000671452 1.43524
lowerneck -10.2966 0.50842 -0.973966
upperneck 34.4811 0.90305 0.244101
head 13.2769 0.301089 0.394992
rclavicle -4.52235e-015 -1.39149e-015
rhumerus -29.1845 -24.4138 -77.4489
rradius 20.4064
rwrist 43.3998
rhand -17.2881 -26.7346
rfingers 7.12502
rthumb 8.95738 -56.5244
lclavicle -4.52235e-015 -1.39149e-015
lhumerus -23.5031 8.81054 80.4598
lradius 12.7091
lwrist -5.49779
lhand -23.8678 -7.11605
lfingers 7.12502
lthumb 2.60507 22.8478
rfemur -13.1041 -0.36644 19.5805
rtibia 22.233
rfoot -12.9526 -0.0332547
rtoes 12.8368
lfemur -10.9851 6.58031 -17.931
ltibia 19.5652
lfoot -9.93244 4.61321
ltoes -8.74971
